Coordinates
version=1
nRows=14
nColumns=24
inDegrees=yes

Units are S.I. units (second, meters, Newtons, ...)
Angles are in degrees.

endheader
time	pelvis_tilt	pelvis_list	pelvis_rotation	pelvis_tx	pelvis_ty	pelvis_tz	hip_flexion_r	hip_adduction_r	hip_rotation_r	knee_angle_r	ankle_angle_r	subtalar_angle_r	mtp_angle_r	hip_flexion_l	hip_adduction_l	hip_rotation_l	knee_angle_l	ankle_angle_l	subtalar_angle_l	mtp_angle_l	lumbar_extension	lumbar_bending	lumbar_rotation
      5.68500000	     -3.46746116	      9.17557761	     -7.38410999	      1.85071645	      1.01076226	     -0.22772639	      7.83463137	    -13.35811534	     -4.04787448	    -59.98756812	    -13.69052298	     -1.07487712	      0.00000000	     21.33947520	     10.58099277	     -8.22540954	    -18.13979304	      8.33112325	     -8.74054354	      0.00000000	     -6.99026010	    -12.24852877	      2.04532014
      5.69000000	     -3.43732226	      9.37339700	     -7.45104710	      1.85709100	      1.01130895	     -0.22806779	      8.71951838	    -13.55283915	     -3.79125821	    -61.11304753	    -13.22364225	     -1.37142173	      0.00000000	     20.86310068	     10.86206585	     -8.26668698	    -17.95956909	      8.70462043	     -8.63157759	      0.00000000	     -6.98962327	    -12.43694342	      1.93099255
      5.69500000	     -3.39068926	      9.52523513	     -7.47477205	      1.86344935	      1.01194967	     -0.22840157	      9.54422605	    -13.68078760	     -3.57435845	    -62.14300135	    -12.49423487	     -1.56115080	      0.00000000	     20.34715160	     11.11388851	     -8.25798077	    -17.75638768	      9.03457998	     -8.52787325	      0.00000000	     -7.02174257	    -12.57607794	      1.74134831
      5.70000000	     -3.34317891	      9.63253562	     -7.48750587	      1.86979891	      1.01264610	     -0.22875949	     10.34317895	    -13.75043888	     -3.37065101	    -63.08704338	    -11.53859768	     -1.61706269	      0.00000000	     19.80384208	     11.33261759	     -8.18903182	    -17.52009288	      9.35464539	     -8.44868324	      0.00000000	     -7.05475788	    -12.65618454	      1.56800912
      5.70500000	     -3.29746049	      9.69886934	     -7.49517788	      1.87610828	      1.01338373	     -0.22911878	     11.12627535	    -13.76882974	     -3.18521529	    -63.95266031	    -10.39002781	     -1.55882108	      0.00000000	     19.24878218	     11.51613130	     -8.08858035	    -17.26642663	      9.62780786	     -8.42878700	      0.00000000	     -7.09103874	    -12.68721081	      1.39289884
      5.71000000	     -3.25103408	      9.73250241	     -7.47470782	      1.88241967	      1.01417273	     -0.22950774	     11.87709679	    -13.74982789	     -3.04648596	    -64.72611486	     -9.10894525	     -1.44186894	      0.00000000	     18.66774336	     11.68091361	     -7.92701532	    -16.97958502	      9.87363719	     -8.43774194	      0.00000000	     -7.13081143	    -12.67399205	      1.19926946
      5.71500000	     -3.20511726	      9.72227098	     -7.42978110	      1.88875625	      1.01502550	     -0.22988038	     12.59164424	    -13.67697011	     -2.94789311	    -65.40102953	     -7.74639493	     -1.27831132	      0.00000000	     18.05681152	     11.80878328	     -7.69849904	    -16.66087299	     10.10097160	     -8.44269493	      0.00000000	     -7.16651871	    -12.61236302	      0.97367753
      5.72000000	     -3.15647144	      9.69344491	     -7.36269140	      1.89505793	      1.01588946	     -0.23032785	     13.28466523	    -13.59255426	     -2.89201220	    -66.00179083	     -6.30825025	     -1.07595590	      0.00000000	     17.43664858	     11.93142617	     -7.43227963	    -16.33087833	     10.27957579	     -8.52603397	      0.00000000	     -7.21804286	    -12.51969373	      0.74584724
      5.72500000	     -3.09354964	      9.66729748	     -7.26559854	      1.90135512	      1.01677529	     -0.23089973	     13.94288198	    -13.53627415	     -2.90570239	    -66.52566447	     -4.83478606	     -0.86774054	      0.00000000	     16.78881987	     12.08150860	     -7.10827417	    -15.96957309	     10.36687376	     -8.74891498	      0.00000000	     -7.29068716	    -12.41544031	      0.50207801
      5.73000000	     -3.02404246	      9.60829591	     -7.15130626	      1.90769493	      1.01771389	     -0.23145474	     14.56133413	    -13.44104844	     -2.95200717	    -66.95351659	     -3.41110499	     -0.69864202	      0.00000000	     16.09647317	     12.20351965	     -6.67516742	    -15.56359991	     10.44049647	     -8.97180399	      0.00000000	     -7.36401203	    -12.27632529	      0.23414294
      5.73500000	     -2.96228706	      9.50890672	     -7.00740466	      1.91400242	      1.01865991	     -0.23204049	     15.15764679	    -13.30603491	     -3.04596770	    -67.29910306	     -2.01657518	     -0.53796234	      0.00000000	     15.41197393	     12.28288093	     -6.24508472	    -15.17252913	     10.51820023	     -9.17541137	      0.00000000	     -7.44229571	    -12.08660251	     -0.05072091
      5.74000000	     -2.90782761	      9.38532538	     -6.84090463	      1.92028997	      1.01961594	     -0.23265422	     15.73613482	    -13.15123591	     -3.18468471	    -67.56276058	     -0.67446982	     -0.40566557	      0.00000000	     14.72871960	     12.33598026	     -5.80619203	    -14.77735949	     10.56845009	     -9.38471289	      0.00000000	     -7.51847588	    -11.86531460	     -0.33962756
      5.74500000	     -2.85448190	      9.24536947	     -6.65640420	      1.92659114	      1.02057022	     -0.23331133	     16.29226443	    -12.98408935	     -3.35483355	    -67.75065126	      0.59909664	     -0.30370122	      0.00000000	     14.03061796	     12.37488211	     -5.32017466	    -14.36256978	     10.60356906	     -9.61651544	      0.00000000	     -7.59446051	    -11.61852352	     -0.63987334
      5.75000000	     -2.81006424	      9.07816713	     -6.46109220	      1.93285520	      1.02150541	     -0.23399925	     16.84188581	    -12.79137537	     -3.54884046	    -67.86904651	      1.79289918	     -0.21837619	      0.00000000	     13.34144231	     12.37982752	     -4.85151878	    -13.95053087	     10.64785397	     -9.84474809	      0.00000000	     -7.66932148	    -11.33377965	     -0.95056823
